<svg width="20" height="20" viewBox="0 0 20 20" fill="none" xmlns="http://www.w3.org/2000/svg">
<mask id="mask0_61_17587" style="mask-type:alpha" maskUnits="userSpaceOnUse" x="1" y="1" width="18" height="18">
<path d="M2.36125 8.60965C2.17706 8.60965 2.00041 8.53648 1.87016 8.40624C1.73992 8.27599 1.66675 8.09934 1.66675 7.91515V2.36052C1.66675 2.17632 1.73992 1.99968 1.87016 1.86943C2.00041 1.73919 2.17706 1.66602 2.36125 1.66602H7.91727C8.10146 1.66602 8.27811 1.73919 8.40836 1.86943C8.5386 1.99968 8.61177 2.17632 8.61177 2.36052V7.91515C8.61177 8.09934 8.5386 8.27599 8.40836 8.40624C8.27811 8.53648 8.10146 8.60965 7.91727 8.60965H2.36125ZM12.0843 8.60965C11.9001 8.60965 11.7234 8.53648 11.5932 8.40624C11.463 8.27599 11.3898 8.09934 11.3898 7.91515V2.36052C11.3898 2.17632 11.463 1.99968 11.5932 1.86943C11.7234 1.73919 11.9001 1.66602 12.0843 1.66602H17.6389C17.8231 1.66602 17.9998 1.73919 18.13 1.86943C18.2602 1.99968 18.3334 2.17632 18.3334 2.36052V7.91515C18.3334 8.09934 18.2602 8.27599 18.13 8.40624C17.9998 8.53648 17.8231 8.60965 17.6389 8.60965H12.0843ZM2.36125 18.3327C2.17706 18.3327 2.00041 18.2595 1.87016 18.1293C1.73992 17.999 1.66675 17.8224 1.66675 17.6382V12.0822C1.66675 11.898 1.73992 11.7213 1.87016 11.5911C2.00041 11.4608 2.17706 11.3877 2.36125 11.3877H7.91727C8.10146 11.3877 8.27811 11.4608 8.40836 11.5911C8.5386 11.7213 8.61177 11.898 8.61177 12.0822V17.6382C8.61177 17.8224 8.5386 17.999 8.40836 18.1293C8.27811 18.2595 8.10146 18.3327 7.91727 18.3327H2.36125ZM12.0843 18.3327C11.9001 18.3327 11.7234 18.2595 11.5932 18.1293C11.463 17.999 11.3898 17.8224 11.3898 17.6382V12.0822C11.3898 11.898 11.463 11.7213 11.5932 11.5911C11.7234 11.4608 11.9001 11.3877 12.0843 11.3877H17.6389C17.8231 11.3877 17.9998 11.4608 18.13 11.5911C18.2602 11.7213 18.3334 11.898 18.3334 12.0822V17.6382C18.3334 17.8224 18.2602 17.999 18.13 18.1293C17.9998 18.2595 17.8231 18.3327 17.6389 18.3327H12.0843Z" fill="black"/>
</mask>
<g mask="url(#mask0_61_17587)">
<rect y="-0.00146484" width="20" height="20" fill="#22A2E1"/>
</g>
</svg>
