<svg width="375" height="812" viewBox="0 0 375 812" fill="none" xmlns="http://www.w3.org/2000/svg">
<g clip-path="url(#clip0_92_1240)">
<rect width="375" height="983" fill="white"/>
<g clip-path="url(#clip1_92_1240)">
<rect width="375" height="983" fill="url(#paint0_linear_92_1240)"/>
<ellipse cx="36.8513" cy="196" rx="98.8513" ry="95" fill="url(#paint1_linear_92_1240)" fill-opacity="0.1"/>
<ellipse cx="87.8513" cy="302" rx="98.8513" ry="95" fill="url(#paint2_linear_92_1240)" fill-opacity="0.1"/>
<ellipse cx="336.851" cy="148" rx="98.8513" ry="95" fill="url(#paint3_linear_92_1240)" fill-opacity="0.1"/>
</g>
<g opacity="0.24" filter="url(#filter0_f_92_1240)">
<ellipse cx="366.393" cy="590.237" rx="13.4205" ry="86.0246" transform="rotate(-116.685 366.393 590.237)" fill="url(#paint4_radial_92_1240)"/>
</g>
<g opacity="0.24" filter="url(#filter1_f_92_1240)">
<ellipse cx="274.464" cy="78.1717" rx="13.4205" ry="86.0246" transform="rotate(-134.837 274.464 78.1717)" fill="url(#paint5_radial_92_1240)"/>
</g>
<g opacity="0.24" filter="url(#filter2_f_92_1240)">
<ellipse cx="366.393" cy="430.237" rx="13.4205" ry="86.0246" transform="rotate(-116.685 366.393 430.237)" fill="url(#paint6_radial_92_1240)"/>
</g>
<path opacity="0.63" fill-rule="evenodd" clip-rule="evenodd" d="M844.446 471.622C811.956 434.402 777.415 451.249 749.967 464.949C738.423 470.675 655.088 518.115 655.088 518.115C609.427 537.021 573.874 516.389 559.926 499.021C558.592 497.374 557.386 495.626 556.321 493.792L553.07 488.137C547.575 478.592 541.467 469.415 534.787 460.666C530.732 455.363 526.341 450.328 521.64 445.594C490.399 413.912 440.473 391.742 357.022 432.012C317.509 455.011 188.797 528.858 188.797 528.858C140.426 548.851 103.437 524.504 91.42 506.64C90.8794 505.971 90.406 505.25 90.0065 504.487L88.4283 501.79L80.2759 488.397C76.5976 482.531 72.6502 476.838 68.4485 471.337C64.3542 466.068 59.9565 461.043 55.2782 456.289C24.2487 424.796 -25.4177 402.673 -108.139 442.187C-158.159 470.864 -274.502 537.66 -274.502 537.66L-274.549 537.707L-359.698 586.567L-315.639 640.893C-297.097 658.639 -262.251 687.742 -208.343 663.206C-208.343 663.206 -59.5571 576.676 -58.9681 576.417C68.236 506.308 131.002 573.294 158.757 617.942C159.723 619.338 160.501 620.852 161.373 622.201L161.419 622.272C161.773 622.816 161.985 623.313 162.292 623.833L165.425 628.991C178.948 649.577 200.271 662.875 225.694 662.259C239.712 661.975 249.23 657.385 263.084 649.647L407.041 565.793L407.347 565.651C536.154 494.691 599.98 566.053 627.24 610.702C629.36 614.558 631.763 618.249 634.237 621.681C647.737 640.065 666.35 652.108 690.004 651.517C705.626 651.209 723.131 641.792 725.747 640.065L898.329 540.026C898.376 540.073 880.754 513.312 844.446 471.622Z" fill="url(#paint7_linear_92_1240)"/>
<g opacity="0.32" filter="url(#filter3_f_92_1240)">
<path d="M136.717 211.757C141.275 170.178 87.1528 138.461 58.5 102.5C134.523 142.439 143.077 183.26 136.717 211.757C135.724 220.821 131.942 230.353 124.5 240.5C128.562 233.855 134.001 223.931 136.717 211.757Z" fill="white"/>
</g>
<g opacity="0.32" filter="url(#filter4_f_92_1240)">
<path d="M340.384 52.7185C298.825 47.9863 266.88 101.975 230.799 130.476C271.057 54.6211 311.915 46.2393 340.384 52.7185C349.444 53.7501 358.96 57.572 369.075 65.0566C362.447 60.9663 352.546 55.4864 340.384 52.7185Z" fill="white"/>
</g>
<g opacity="0.32" filter="url(#filter5_f_92_1240)">
<path d="M223.495 508.006C233.881 501.91 244.136 495.792 254.135 490.68C243.114 497.365 232.926 503.106 223.495 508.006C182.085 532.311 138.574 556.262 100.762 514.67C117.817 530.522 143.227 549.712 223.495 508.006Z" fill="white"/>
</g>
<g opacity="0.32" filter="url(#filter6_f_92_1240)">
<path d="M405.659 220.182C416.045 214.086 426.299 207.968 436.298 202.856C425.278 209.541 415.09 215.282 405.659 220.182C364.249 244.486 320.737 268.438 282.926 226.845C299.981 242.698 325.391 261.887 405.659 220.182Z" fill="white"/>
</g>
<g opacity="0.32" filter="url(#filter7_f_92_1240)">
<path d="M293.495 632.006C303.881 625.91 314.136 619.792 324.135 614.68C313.114 621.365 302.926 627.106 293.495 632.006C252.085 656.311 208.574 680.262 170.762 638.67C187.817 654.522 213.227 673.712 293.495 632.006Z" fill="white"/>
</g>
</g>
<defs>
<filter id="filter0_f_92_1240" x="276.405" y="536.889" width="179.976" height="106.695" filterUnits="userSpaceOnUse" color-interpolation-filters="sRGB">
<feFlood flood-opacity="0" result="BackgroundImageFix"/>
<feBlend mode="normal" in="SourceGraphic" in2="BackgroundImageFix" result="shape"/>
<feGaussianBlur stdDeviation="6.44307" result="effect1_foregroundBlur_92_1240"/>
</filter>
<filter id="filter1_f_92_1240" x="199.838" y="3.87949" width="149.252" height="148.584" filterUnits="userSpaceOnUse" color-interpolation-filters="sRGB">
<feFlood flood-opacity="0" result="BackgroundImageFix"/>
<feBlend mode="normal" in="SourceGraphic" in2="BackgroundImageFix" result="shape"/>
<feGaussianBlur stdDeviation="6.44307" result="effect1_foregroundBlur_92_1240"/>
</filter>
<filter id="filter2_f_92_1240" x="276.405" y="376.889" width="179.976" height="106.695" filterUnits="userSpaceOnUse" color-interpolation-filters="sRGB">
<feFlood flood-opacity="0" result="BackgroundImageFix"/>
<feBlend mode="normal" in="SourceGraphic" in2="BackgroundImageFix" result="shape"/>
<feGaussianBlur stdDeviation="6.44307" result="effect1_foregroundBlur_92_1240"/>
</filter>
<filter id="filter3_f_92_1240" x="55.1089" y="99.1089" width="86.6933" height="144.782" filterUnits="userSpaceOnUse" color-interpolation-filters="sRGB">
<feFlood flood-opacity="0" result="BackgroundImageFix"/>
<feBlend mode="normal" in="SourceGraphic" in2="BackgroundImageFix" result="shape"/>
<feGaussianBlur stdDeviation="1.69554" result="effect1_foregroundBlur_92_1240"/>
</filter>
<filter id="filter4_f_92_1240" x="227.408" y="47.5696" width="145.058" height="86.2976" filterUnits="userSpaceOnUse" color-interpolation-filters="sRGB">
<feFlood flood-opacity="0" result="BackgroundImageFix"/>
<feBlend mode="normal" in="SourceGraphic" in2="BackgroundImageFix" result="shape"/>
<feGaussianBlur stdDeviation="1.69554" result="effect1_foregroundBlur_92_1240"/>
</filter>
<filter id="filter5_f_92_1240" x="97.3711" y="487.289" width="160.154" height="53.3969" filterUnits="userSpaceOnUse" color-interpolation-filters="sRGB">
<feFlood flood-opacity="0" result="BackgroundImageFix"/>
<feBlend mode="normal" in="SourceGraphic" in2="BackgroundImageFix" result="shape"/>
<feGaussianBlur stdDeviation="1.69554" result="effect1_foregroundBlur_92_1240"/>
</filter>
<filter id="filter6_f_92_1240" x="279.535" y="199.465" width="160.154" height="53.3969" filterUnits="userSpaceOnUse" color-interpolation-filters="sRGB">
<feFlood flood-opacity="0" result="BackgroundImageFix"/>
<feBlend mode="normal" in="SourceGraphic" in2="BackgroundImageFix" result="shape"/>
<feGaussianBlur stdDeviation="1.69554" result="effect1_foregroundBlur_92_1240"/>
</filter>
<filter id="filter7_f_92_1240" x="167.371" y="611.289" width="160.154" height="53.3969" filterUnits="userSpaceOnUse" color-interpolation-filters="sRGB">
<feFlood flood-opacity="0" result="BackgroundImageFix"/>
<feBlend mode="normal" in="SourceGraphic" in2="BackgroundImageFix" result="shape"/>
<feGaussianBlur stdDeviation="1.69554" result="effect1_foregroundBlur_92_1240"/>
</filter>
<linearGradient id="paint0_linear_92_1240" x1="375" y1="0" x2="-86.9071" y2="459.901" gradientUnits="userSpaceOnUse">
<stop stop-color="#2570E7"/>
<stop offset="1" stop-color="#1DDCDB"/>
</linearGradient>
<linearGradient id="paint1_linear_92_1240" x1="19.5786" y1="20.1883" x2="49.8059" y2="348.37" gradientUnits="userSpaceOnUse">
<stop stop-color="white"/>
<stop offset="0.538454" stop-color="#0466B9"/>
<stop offset="1" stop-color="#023661"/>
</linearGradient>
<linearGradient id="paint2_linear_92_1240" x1="70.5786" y1="126.188" x2="100.806" y2="454.37" gradientUnits="userSpaceOnUse">
<stop stop-color="white"/>
<stop offset="0.538454" stop-color="#0466B9"/>
<stop offset="1" stop-color="#023661"/>
</linearGradient>
<linearGradient id="paint3_linear_92_1240" x1="319.579" y1="-27.8117" x2="349.806" y2="300.37" gradientUnits="userSpaceOnUse">
<stop stop-color="white"/>
<stop offset="0.538454" stop-color="#0466B9"/>
<stop offset="1" stop-color="#023661"/>
</linearGradient>
<radialGradient id="paint4_radial_92_1240" cx="0" cy="0" r="1" gradientUnits="userSpaceOnUse" gradientTransform="translate(366.393 590.237) rotate(90) scale(86.0246 21.1552)">
<stop stop-color="white"/>
<stop offset="1" stop-color="white" stop-opacity="0"/>
</radialGradient>
<radialGradient id="paint5_radial_92_1240" cx="0" cy="0" r="1" gradientUnits="userSpaceOnUse" gradientTransform="translate(274.464 78.1717) rotate(90) scale(86.0246 21.1552)">
<stop stop-color="white"/>
<stop offset="1" stop-color="white" stop-opacity="0"/>
</radialGradient>
<radialGradient id="paint6_radial_92_1240" cx="0" cy="0" r="1" gradientUnits="userSpaceOnUse" gradientTransform="translate(366.393 430.237) rotate(90) scale(86.0246 21.1552)">
<stop stop-color="white"/>
<stop offset="1" stop-color="white" stop-opacity="0"/>
</radialGradient>
<linearGradient id="paint7_linear_92_1240" x1="453.781" y1="345.813" x2="501.952" y2="611.613" gradientUnits="userSpaceOnUse">
<stop stop-color="#007DFE"/>
<stop offset="1" stop-color="#42B0FF"/>
</linearGradient>
<clipPath id="clip0_92_1240">
<rect width="375" height="983" fill="white"/>
</clipPath>
<clipPath id="clip1_92_1240">
<rect width="375" height="983" fill="white"/>
</clipPath>
</defs>
</svg>
