<svg width="54" height="58" viewBox="0 0 54 58" fill="none" xmlns="http://www.w3.org/2000/svg">
<g filter="url(#filter0_dd_61_28401)">
<path d="M1 17C1 8.16344 8.16344 1 17 1H37C45.8366 1 53 8.16344 53 17V37C53 45.8366 45.8366 53 37 53H17C8.16344 53 1 45.8366 1 37V17Z" fill="#22A2E1" stroke="white" stroke-width="2"/>
<mask id="mask0_61_28401" style="mask-type:alpha" maskUnits="userSpaceOnUse" x="10" y="10" width="34" height="34">
<path d="M29.1669 12.5543C29.1669 11.3576 28.1968 10.3875 27 10.3875C25.8033 10.3875 24.8332 11.3576 24.8332 12.5543V24.8333H12.5542C11.3575 24.8333 10.3873 25.8034 10.3873 27.0002C10.3873 28.1969 11.3575 29.167 12.5542 29.167H24.8332V41.446C24.8332 42.6427 25.8033 43.6129 27 43.6129C28.1968 43.6129 29.1669 42.6427 29.1669 41.446V29.167H41.4459C42.6426 29.167 43.6128 28.1969 43.6128 27.0002C43.6128 25.8034 42.6426 24.8333 41.4459 24.8333H29.1669V12.5543Z" fill="#006FFD"/>
</mask>
<g mask="url(#mask0_61_28401)">
<rect x="9.66504" y="9.66504" width="34.67" height="34.67" fill="white"/>
</g>
</g>
<defs>
<filter id="filter0_dd_61_28401" x="0" y="0" width="54" height="60" filterUnits="userSpaceOnUse" color-interpolation-filters="sRGB">
<feFlood flood-opacity="0" result="BackgroundImageFix"/>
<feColorMatrix in="SourceAlpha" type="matrix" values="0 0 0 0 0 0 0 0 0 0 0 0 0 0 0 0 0 0 127 0" result="hardAlpha"/>
<feOffset dy="4"/>
<feColorMatrix type="matrix" values="0 0 0 0 0 0 0 0 0 0.341177 0 0 0 0 0.905882 0 0 0 0.1 0"/>
<feBlend mode="normal" in2="BackgroundImageFix" result="effect1_dropShadow_61_28401"/>
<feColorMatrix in="SourceAlpha" type="matrix" values="0 0 0 0 0 0 0 0 0 0 0 0 0 0 0 0 0 0 127 0" result="hardAlpha"/>
<feOffset/>
<feColorMatrix type="matrix" values="0 0 0 0 0 0 0 0 0 0.341177 0 0 0 0 0.905882 0 0 0 0.03 0"/>
<feBlend mode="normal" in2="effect1_dropShadow_61_28401" result="effect2_dropShadow_61_28401"/>
<feBlend mode="normal" in="SourceGraphic" in2="effect2_dropShadow_61_28401" result="shape"/>
</filter>
</defs>
</svg>
