<svg width="24" height="24" viewBox="0 0 24 24" fill="none" xmlns="http://www.w3.org/2000/svg">
<mask id="mask0_61_28399" style="mask-type:alpha" maskUnits="userSpaceOnUse" x="-1" y="1" width="25" height="22">
<path d="M2.84749 4.15672H21.1506C21.8696 4.15672 22.4579 3.5684 22.4579 2.84935C22.4579 2.13031 21.8696 1.54199 21.1506 1.54199H2.84749C2.12844 1.54199 1.54012 2.13031 1.54012 2.84935C1.54012 3.5684 2.12844 4.15672 2.84749 4.15672ZM22.6671 6.50997C22.5494 5.90858 22.0134 5.46408 21.3859 5.46408H2.61216C1.98463 5.46408 1.44861 5.90858 1.33094 6.50997L0.0235816 13.0468C-0.133302 13.8573 0.481159 14.6156 1.3048 14.6156H1.54012V21.1524C1.54012 21.8715 2.12844 22.4598 2.84749 22.4598H13.3064C14.0254 22.4598 14.6137 21.8715 14.6137 21.1524V14.6156H19.8432V21.1524C19.8432 21.8715 20.4315 22.4598 21.1506 22.4598C21.8696 22.4598 22.4579 21.8715 22.4579 21.1524V14.6156H22.6933C23.5169 14.6156 24.1314 13.8573 23.9745 13.0468L22.6671 6.50997ZM11.999 19.8451H4.15485V14.6156H11.999V19.8451Z" fill="black"/>
</mask>
<g mask="url(#mask0_61_28399)">
<rect x="-0.000976562" width="24" height="24" fill="#22A2E1"/>
</g>
</svg>
