<svg width="24" height="24" viewBox="0 0 24 24" fill="none" xmlns="http://www.w3.org/2000/svg">
<mask id="mask0_61_28407" style="mask-type:alpha" maskUnits="userSpaceOnUse" x="2" y="3" width="20" height="19">
<path fill-rule="evenodd" clip-rule="evenodd" d="M2 4.50024C2 4.10242 2.15051 3.72089 2.41842 3.43958C2.68633 3.15828 3.04969 3.00024 3.42857 3.00024H20.5714C20.9503 3.00024 21.3137 3.15828 21.5816 3.43958C21.8495 3.72089 22 4.10242 22 4.50024C22 4.89807 21.8495 5.2796 21.5816 5.5609C21.3137 5.84221 20.9503 6.00024 20.5714 6.00024H3.42857C3.04969 6.00024 2.68633 5.84221 2.41842 5.5609C2.15051 5.2796 2 4.89807 2 4.50024ZM2 12.0002C2 11.6024 2.15051 11.2209 2.41842 10.9396C2.68633 10.6583 3.04969 10.5002 3.42857 10.5002H20.5714C20.9503 10.5002 21.3137 10.6583 21.5816 10.9396C21.8495 11.2209 22 11.6024 22 12.0002C22 12.3981 21.8495 12.7796 21.5816 13.0609C21.3137 13.3422 20.9503 13.5002 20.5714 13.5002H3.42857C3.04969 13.5002 2.68633 13.3422 2.41842 13.0609C2.15051 12.7796 2 12.3981 2 12.0002ZM2 19.5002C2 19.1024 2.15051 18.7209 2.41842 18.4396C2.68633 18.1583 3.04969 18.0002 3.42857 18.0002H20.5714C20.9503 18.0002 21.3137 18.1583 21.5816 18.4396C21.8495 18.7209 22 19.1024 22 19.5002C22 19.8981 21.8495 20.2796 21.5816 20.5609C21.3137 20.8422 20.9503 21.0002 20.5714 21.0002H3.42857C3.04969 21.0002 2.68633 20.8422 2.41842 20.5609C2.15051 20.2796 2 19.8981 2 19.5002Z" fill="#006FFD"/>
</mask>
<g mask="url(#mask0_61_28407)">
<rect y="0.000244141" width="24" height="24" fill="#686868"/>
</g>
</svg>
