<svg width="20" height="20" viewBox="0 0 20 20" fill="none" xmlns="http://www.w3.org/2000/svg">
<mask id="mask0_61_17445" style="mask-type:alpha" maskUnits="userSpaceOnUse" x="1" y="0" width="18" height="20">
<path d="M14.9998 4.9998C14.9998 7.76112 12.7614 9.99961 10 9.99961C7.23873 9.99961 5.00024 7.76112 5.00024 4.9998C5.00024 2.23849 7.23873 0 10 0C12.7614 0 14.9998 2.23849 14.9998 4.9998Z" fill="#006FFD"/>
<path d="M1.66699 16.6665C1.66699 13.9052 3.90548 11.6667 6.6668 11.6667H13.3332C16.0945 11.6667 18.333 13.9052 18.333 16.6665V17.4998C18.333 18.8804 17.2138 19.9997 15.8331 19.9997H4.16689C2.78624 19.9997 1.66699 18.8804 1.66699 17.4998V16.6665Z" fill="#006FFD"/>
</mask>
<g mask="url(#mask0_61_17445)">
<rect x="0.000488281" y="-0.000976562" width="19.9992" height="19.9992" fill="#22A2E1"/>
</g>
</svg>
