<svg width="16" height="16" viewBox="0 0 16 16" fill="none" xmlns="http://www.w3.org/2000/svg">
<path d="M15.4282 15.4269C15.7445 15.1129 15.7475 14.6024 15.435 14.2847L10.8718 9.64536C11.6186 8.63896 12.0658 7.39624 12.0658 6.04576C12.0658 2.7068 9.36488 0 6.03296 0C2.70104 0 0 2.7068 0 6.04576C0 9.38472 2.70104 12.0915 6.03296 12.0915C7.43344 12.0915 8.71896 11.609 9.7428 10.8066L14.2806 15.4201C14.5952 15.7399 15.1099 15.743 15.4282 15.4269ZM6.03296 10.4689C3.59696 10.4689 1.61504 8.48472 1.61504 6.04576C1.61504 3.6068 3.59696 1.62264 6.03296 1.62264C8.46896 1.62264 10.4508 3.6068 10.4508 6.04576C10.4508 8.48472 8.46896 10.4689 6.03296 10.4689Z" fill="#959595"/>
</svg>
