<svg width="16" height="16" viewBox="0 0 16 16" fill="none" xmlns="http://www.w3.org/2000/svg">
<mask id="mask0_57_3555" style="mask-type:alpha" maskUnits="userSpaceOnUse" x="0" y="1" width="15" height="15">
<path d="M0.549036 5.62658C0.46025 5.65617 0.381548 5.71008 0.321884 5.78218C0.26222 5.85427 0.223988 5.94167 0.211537 6.03442C0.199087 6.12718 0.212917 6.22156 0.251456 6.30685C0.289994 6.39213 0.351693 6.46488 0.429535 6.51683L4.85107 8.95423C4.93348 8.99964 5.02703 9.02088 5.12097 9.0155C5.21491 9.01012 5.30542 8.97834 5.38211 8.92382L10.0794 5.57426C10.3064 5.42223 10.5779 5.69376 10.4259 5.92074L7.07634 10.6181C7.02182 10.6947 6.99004 10.7853 6.98466 10.8792C6.97928 10.9731 7.00052 11.0667 7.04593 11.1491L9.48333 15.5706C9.53528 15.6485 9.60803 15.7102 9.69332 15.7487C9.7786 15.7872 9.87298 15.8011 9.96574 15.7886C10.0585 15.7762 10.1459 15.7379 10.218 15.6783C10.2901 15.6186 10.344 15.5399 10.3736 15.4511L14.9698 1.66254C14.999 1.5745 15.0032 1.48006 14.9818 1.38977C14.9605 1.29949 14.9144 1.21693 14.8488 1.15133C14.7832 1.08573 14.7007 1.03967 14.6104 1.01831C14.5201 0.996955 14.4257 1.00114 14.3376 1.03039L0.549036 5.62658Z" fill="#006FFD"/>
</mask>
<g mask="url(#mask0_57_3555)">
<rect width="16" height="16" fill="#22A2E1"/>
</g>
</svg>
